<mxfile host="app.diagrams.net" modified="2024-07-24T12:23:10.777Z" agent="Mozilla/5.0 (Windows NT 10.0; Win64; x64) AppleWebKit/537.36 (KHTML, like Gecko) Chrome/126.0.0.0 Safari/537.36" etag="X6GmR6u9dvCQN-no7Sad" version="24.4.4" type="device">
  <diagram name="Page-1" id="7rWQn6SCv7dxfdUiIuAD">
    <mxGraphModel dx="1050" dy="557" grid="1" gridSize="10" guides="1" tooltips="1" connect="1" arrows="1" fold="1" page="1" pageScale="1" pageWidth="827" pageHeight="1169" math="0" shadow="0">
      <root>
        <mxCell id="0" />
        <mxCell id="1" parent="0" />
        <mxCell id="ZtDkH1S12_zKkrqFkgp--2" value="" style="ellipse;whiteSpace=wrap;html=1;" vertex="1" parent="1">
          <mxGeometry x="350" y="50" width="20" height="20" as="geometry" />
        </mxCell>
        <mxCell id="ZtDkH1S12_zKkrqFkgp--1" value="" style="rounded=1;whiteSpace=wrap;html=1;rotation=90;" vertex="1" parent="1">
          <mxGeometry x="215" y="125" width="290" height="160" as="geometry" />
        </mxCell>
        <mxCell id="ZtDkH1S12_zKkrqFkgp--4" value="UP&lt;div&gt;&lt;br&gt;&lt;/div&gt;" style="text;html=1;align=center;verticalAlign=middle;whiteSpace=wrap;rounded=0;fontStyle=1" vertex="1" parent="1">
          <mxGeometry x="280" y="70" width="60" height="30" as="geometry" />
        </mxCell>
        <mxCell id="ZtDkH1S12_zKkrqFkgp--5" value="PROJECT&lt;div&gt;&lt;br&gt;&lt;/div&gt;" style="text;html=1;align=center;verticalAlign=middle;whiteSpace=wrap;rounded=0;fontStyle=1" vertex="1" parent="1">
          <mxGeometry x="330" y="70" width="60" height="30" as="geometry" />
        </mxCell>
        <mxCell id="ZtDkH1S12_zKkrqFkgp--6" value="&lt;div&gt;DOWN&lt;/div&gt;&lt;div&gt;&lt;br&gt;&lt;/div&gt;" style="text;html=1;align=center;verticalAlign=middle;whiteSpace=wrap;rounded=0;fontStyle=1" vertex="1" parent="1">
          <mxGeometry x="380" y="70" width="60" height="30" as="geometry" />
        </mxCell>
        <mxCell id="ZtDkH1S12_zKkrqFkgp--7" value="" style="ellipse;whiteSpace=wrap;html=1;aspect=fixed;fillColor=#008a00;fontColor=#ffffff;strokeColor=#005700;" vertex="1" parent="1">
          <mxGeometry x="300" y="90" width="20" height="20" as="geometry" />
        </mxCell>
        <mxCell id="ZtDkH1S12_zKkrqFkgp--8" value="" style="ellipse;whiteSpace=wrap;html=1;aspect=fixed;fillColor=#e51400;fontColor=#ffffff;strokeColor=#B20000;" vertex="1" parent="1">
          <mxGeometry x="400" y="90" width="20" height="20" as="geometry" />
        </mxCell>
        <mxCell id="ZtDkH1S12_zKkrqFkgp--9" value="" style="ellipse;whiteSpace=wrap;html=1;aspect=fixed;fillColor=#e51400;fontColor=#ffffff;strokeColor=#B20000;" vertex="1" parent="1">
          <mxGeometry x="350" y="90" width="20" height="20" as="geometry" />
        </mxCell>
        <mxCell id="ZtDkH1S12_zKkrqFkgp--13" value="&lt;div&gt;&lt;br&gt;&lt;/div&gt;UP&lt;div&gt;&lt;br&gt;&lt;/div&gt;" style="rounded=0;whiteSpace=wrap;html=1;" vertex="1" parent="1">
          <mxGeometry x="300" y="140" width="120" height="30" as="geometry" />
        </mxCell>
        <mxCell id="ZtDkH1S12_zKkrqFkgp--14" value="&lt;div&gt;PROJECT&lt;/div&gt;" style="rounded=0;whiteSpace=wrap;html=1;" vertex="1" parent="1">
          <mxGeometry x="300" y="200" width="120" height="30" as="geometry" />
        </mxCell>
        <mxCell id="ZtDkH1S12_zKkrqFkgp--15" value="&lt;div&gt;DOWN&lt;/div&gt;" style="rounded=0;whiteSpace=wrap;html=1;" vertex="1" parent="1">
          <mxGeometry x="300" y="255" width="120" height="30" as="geometry" />
        </mxCell>
        <mxCell id="ZtDkH1S12_zKkrqFkgp--18" value="START" style="ellipse;whiteSpace=wrap;html=1;" vertex="1" parent="1">
          <mxGeometry x="290" y="310" width="60" height="40" as="geometry" />
        </mxCell>
        <mxCell id="ZtDkH1S12_zKkrqFkgp--19" value="END" style="ellipse;whiteSpace=wrap;html=1;" vertex="1" parent="1">
          <mxGeometry x="370" y="310" width="60" height="40" as="geometry" />
        </mxCell>
      </root>
    </mxGraphModel>
  </diagram>
</mxfile>
